PathFileType	4	(X/Y/Z)	C:\Users\°ÂÌØÂü\Desktop\20210112\bx_n_10_902-Unnamed.trc
DataRate	CameraRate	NumFrames	NumMarkers	Units	OrigDataRate	OrigDataStartFrame	OrigNumFrames
50.00	50.00	       4	0	mm	50.00	122	       484
Frame#	Time	
		

122	2.420	-142.59572	101.94226	1050.18909	-772.61768	15.30682	522.89996				-802.69208	224.40700	969.06769	-796.63971	-11.85196	798.02502	-824.31360	143.37372	564.06091	-871.99902	254.28296	618.90326	-852.90942	249.96884	557.73621	-867.38123	265.71594	477.66565	-518.04449	-72.71047	142.99416	-671.04382	52.88688	163.51923	-596.69965	26.42886	166.78903	-818.23901	72.37543	561.51007	-724.05652	159.47540	222.75697	-799.06079	186.64265	178.74001	-772.75433	233.73428	201.07283	-593.47009	217.41779	172.98628	-882.77136	295.72055	144.67690	-556.69659	251.94928	162.80812	-657.28540	298.29901	158.18643	-621.01154	305.00806	158.48798	-528.03778	303.97382	146.17062	-725.46948	67.72729	221.06029	-953.61530	84.68747	1093.37854	-791.73663	40.52914	172.09030	-853.67596	-46.53520	464.46838	-548.80017	-26.94424	163.38519	-762.36816	-20.31674	201.54597	-876.11615	-78.22915	140.80772	-889.53168	-80.71008	850.59369	-874.55627	-72.10935	734.86920	-844.55627	-37.86259	601.61890	-838.41467	-34.62981	552.85376	-676.82800	175.64716	163.73628	-607.08142	-75.33247	156.91832	-647.87317	-67.12668	161.93130	-791.39294	204.23792	533.85309				-904.23029	283.78891	857.85693	-873.96454	281.06866	723.01556	
123	2.440	-144.09666	103.86981	1054.83447	-772.72137	16.01497	523.10486	-798.32690	202.07614	806.18774	-803.92621	224.31926	968.99005	-797.17120	-11.64590	797.77838	-825.61084	142.84993	563.76575	-873.47980	254.88055	618.64709	-854.05707	249.93065	557.02167	-868.45581	265.68317	477.42081	-517.98877	-72.72867	142.91269	-670.80237	53.17569	163.29633	-596.72809	26.54701	166.66081	-819.24548	72.60433	561.14917	-724.15668	159.57579	222.69324	-799.01605	186.65338	178.88449	-772.74567	233.26604	200.59538	-593.43872	217.21577	173.15486	-882.69989	295.69708	144.50261	-556.83752	252.02565	162.86681	-657.33807	298.35217	158.47679	-620.98590	305.15128	158.73807	-527.92145	303.82364	146.18794	-725.53119	68.12978	220.56784	-955.65820	84.56557	1092.65686	-791.76678	40.60571	171.98511	-854.20667	-46.55471	464.54028	-548.75610	-26.88447	163.33522	-762.33679	-19.84514	201.31369	-876.10669	-78.25706	140.66533	-891.00189	-80.94431	850.41199	-875.09375	-72.27181	734.97705	-845.09320	-37.74451	601.06671	-838.85950	-34.24625	552.77307	-677.19879	175.68982	163.73676	-607.04639	-75.63377	157.36206	-648.01404	-66.99687	161.78923	-792.17682	204.01779	533.46893	-375.28839	246.43054	911.80225	-905.71436	283.50037	857.27124	-875.48578	280.52075	722.08234	
124	2.460	-145.56004	105.49722	1059.79626	-773.40100	16.27168	523.02692	-799.28754	202.53654	806.20874	-805.17676	224.55894	969.23431	-797.96204	-12.01499	797.98340	-826.48907	142.85040	563.69464	-873.88177	255.11041	618.75043	-855.19336	249.79703	557.11627	-869.07648	265.27289	477.19098	-518.03357	-72.79739	142.91258	-671.00372	53.28055	163.43750	-596.84180	26.43423	166.66443	-819.65753	72.21994	561.24091	-724.29828	159.44354	222.70384	-799.13745	186.57079	178.61858	-772.73309	233.30809	200.41743	-593.46777	217.27200	173.16315	-882.75964	295.68597	144.45944	-556.78094	252.03320	162.92522	-657.37677	298.30099	158.56923	-621.30713	304.83264	158.49275	-528.05139	303.79062	146.00813	-725.62598	67.89452	220.62256	-957.16248	84.42144	1092.43958	-791.60223	40.59420	171.84027	-854.38873	-46.66232	464.63284	-548.70508	-26.93798	163.40190	-762.39850	-20.00793	201.43507	-876.18805	-78.32706	140.76462	-891.63464	-80.80090	850.61414	-875.84296	-72.35768	734.85333	-846.10901	-37.94574	600.75464	-839.13293	-34.35205	552.72577	-677.16486	175.63763	163.58968	-607.03577	-75.43673	157.06668	-648.01727	-67.14184	161.94720	-793.18787	204.38716	533.26526				-907.18610	283.24982	857.10980	-876.16327	280.69583	722.35431	
125	2.480	-146.50891	107.61620	1063.88855	-773.96631	16.51852	522.57001	-800.20593	202.72346	806.24915	-806.41180	224.57530	969.38855	-798.77075	-12.21505	797.93469	-826.77185	142.92496	563.71307	-875.02844	254.66533	618.15527	-855.90753	249.33653	556.49896	-869.87524	265.12415	476.80362	-518.11182	-72.75374	142.90726	-670.76721	52.95860	163.54620	-597.08026	26.26600	167.09181	-820.03937	72.05179	561.15515	-724.30896	159.54208	222.74190	-799.06134	186.41353	178.46512	-772.81818	233.26846	200.53371	-593.54712	217.44513	173.05586	-882.44348	296.09494	144.68474	-556.78094	252.03320	162.92522	-657.28503	298.09891	158.28021	-621.29431	304.98764	158.52980	-528.00043	303.75256	146.33337				-958.88147	84.25932	1091.76086	-791.82056	40.43491	171.98831	-854.70593	-47.03097	464.55377	-548.73242	-26.84971	163.41765	-762.42218	-20.04773	201.34204	-876.13269	-78.13029	140.91098	-892.04791	-80.51081	850.31250	-876.49542	-72.74110	734.73236	-846.49689	-37.96438	600.76642	-839.58643	-34.42546	552.34314	-677.07660	175.65205	163.88228	-606.99194	-75.37533	157.16620	-648.11774	-67.03221	161.83673	-793.55487	204.25607	533.38196				-907.74731	283.27850	856.80884	-877.25043	280.31137	721.89252	
